# xmcd CD database file
#
# Track frame offsets:
#	225
#	40515
#	80411
#	117844
#	144250
#	168281
#	191237
#	231740
#	260302
#	298594
#
# Disc length: 4612 seconds
#
# Revision: 0
# Processed by: cddbd v1.5.1PL0 Copyright (c) Steve Scherf et al.
# Submitted via: CDex 1.51
#
DISCID=8912010a
DTITLE=Gabrieb Coburger Quartet - Kluft
DYEAR=2003
DGENRE=Jazz
TTITLE0=Chelsea Piers
TTITLE1=Fun Punk Park
TTITLE2=Taste Of A Peach
TTITLE3=Auf Loch
TTITLE4=On The Dark Side
TTITLE5=Dusel
TTITLE6=Slightly Disturbed
TTITLE7=Keimzelle
TTITLE8=Kluft
TTITLE9=Für Dieter
EXTD=YEAR: 2003
EXTT0=
EXTT1=
EXTT2=
EXTT3=
EXTT4=
EXTT5=
EXTT6=
EXTT7=
EXTT8=
EXTT9=
PLAYORDER=
